<?xml version="1.0" standalone="no"?><!DOCTYPE svg PUBLIC "-//W3C//DTD SVG 1.1//EN" "http://www.w3.org/Graphics/SVG/1.1/DTD/svg11.dtd"><svg t="1531562498660" class="icon" style="" viewBox="0 0 1024 1024" version="1.1" xmlns="http://www.w3.org/2000/svg" p-id="5547" xmlns:xlink="http://www.w3.org/1999/xlink" width="200" height="200"><defs><style type="text/css"></style></defs><path d="M1011.2 345.6c-12.8 19.2-38.4 19.2-51.2 6.4C486.4-70.4 76.8 332.8 57.6 352 51.2 358.4 44.8 364.8 38.4 364.8c-6.4 0-19.2-6.4-25.6-12.8C0 339.2-6.4 313.6 12.8 300.8c6.4-6.4 467.2-467.2 1004.8-6.4C1024 313.6 1030.4 332.8 1011.2 345.6L1011.2 345.6z" p-id="5548"></path><path d="M870.4 454.4c12.8 6.4 12.8 25.6 12.8 38.4-19.2-6.4-38.4-6.4-57.6-6.4-6.4 0-19.2 0-25.6 0C473.6 224 217.6 492.8 204.8 505.6 198.4 518.4 185.6 518.4 179.2 518.4 172.8 518.4 160 518.4 153.6 512c-12.8-12.8-12.8-38.4 0-51.2C153.6 454.4 480 108.8 870.4 454.4L870.4 454.4z" p-id="5549"></path><path d="M499.2 518.4c51.2 0 102.4 12.8 147.2 44.8C633.6 576 620.8 595.2 608 614.4 576 595.2 537.6 588.8 505.6 588.8c-89.6 0-153.6 83.2-153.6 83.2-12.8 19.2-38.4 19.2-51.2 6.4C281.6 659.2 281.6 640 294.4 620.8 294.4 620.8 377.6 518.4 499.2 518.4L499.2 518.4z" p-id="5550"></path><path d="M512 704c19.2 0 38.4 6.4 51.2 19.2 12.8 12.8 19.2 32 19.2 51.2 0 19.2-6.4 38.4-19.2 51.2-12.8 12.8-32 19.2-51.2 19.2-19.2 0-38.4-6.4-51.2-19.2-12.8-12.8-19.2-32-19.2-51.2 0-19.2 6.4-38.4 19.2-51.2C473.6 716.8 492.8 704 512 704L512 704z" p-id="5551"></path><path d="M832 544c-96 0-179.2 76.8-179.2 179.2s76.8 179.2 179.2 179.2 179.2-76.8 179.2-179.2S928 544 832 544L832 544zM921.6 768c6.4 6.4 0 25.6-12.8 38.4-12.8 12.8-32 19.2-38.4 12.8L832 774.4l-44.8 44.8c-6.4 6.4-25.6 0-38.4-12.8-12.8-12.8-19.2-32-12.8-38.4l44.8-44.8-44.8-44.8c-6.4-6.4 0-25.6 12.8-38.4 12.8-12.8 32-19.2 38.4-12.8l44.8 44.8 44.8-44.8c6.4-6.4 25.6 0 38.4 12.8 12.8 12.8 19.2 32 12.8 38.4l-44.8 44.8L921.6 768 921.6 768z" p-id="5552"></path></svg>