<?xml version="1.0" standalone="no"?><!DOCTYPE svg PUBLIC "-//W3C//DTD SVG 1.1//EN" "http://www.w3.org/Graphics/SVG/1.1/DTD/svg11.dtd"><svg t="1532418555761" class="icon" style="" viewBox="0 0 1024 1024" version="1.1" xmlns="http://www.w3.org/2000/svg" p-id="1924" xmlns:xlink="http://www.w3.org/1999/xlink" width="200" height="200"><defs><style type="text/css"></style></defs><path d="M823.320956 781.168416 578.151118 781.168416c-6.680143 0-12.098549 5.420453-12.098549 12.129248l0 29.617551c0 6.710842 5.41943 12.128225 12.098549 12.128225l245.169839 0c6.681166 0 12.098549-5.417383 12.098549-12.128225l0-29.617551C835.420529 786.588869 830.001099 781.168416 823.320956 781.168416zM823.320956 619.546412 578.151118 619.546412c-6.680143 0-12.098549 5.421476-12.098549 12.129248l0 29.619598c0 6.708795 5.41943 12.127202 12.098549 12.127202l245.169839 0c6.681166 0 12.098549-5.418406 12.098549-12.127202l0-29.619598C835.420529 624.967888 830.001099 619.546412 823.320956 619.546412zM446.178387 269.367961l-95.620801 0 0-95.620801c0-6.708795-5.443989-12.126178-12.126178-12.126178l-29.621645 0c-6.680143 0-12.126178 5.418406-12.126178 12.126178L296.683585 269.367961l-95.620801 0c-6.707772 0-12.126178 5.41943-12.126178 12.126178l0 29.620621c0 6.707772 5.418406 12.126178 12.126178 12.126178l95.620801 0 0 95.620801c0 6.707772 5.446036 12.127202 12.126178 12.127202l29.621645 0c6.706749 0 12.126178-5.418406 12.126178-12.127202l0-95.620801 95.620801 0c6.707772 0 12.126178-5.418406 12.126178-12.126178L458.304566 281.494139C458.304566 274.788413 452.886159 269.367961 446.178387 269.367961zM823.320956 269.367961 578.151118 269.367961c-6.680143 0-12.098549 5.41943-12.098549 12.126178l0 29.620621c0 6.707772 5.41943 12.126178 12.098549 12.126178l245.169839 0c6.681166 0 12.098549-5.418406 12.098549-12.126178L835.419506 281.494139C835.420529 274.788413 830.001099 269.367961 823.320956 269.367961zM889.295554 0 135.06158 0c-74.392314 0-134.683469 60.279898-134.683469 134.683469l0 754.233973c0 74.391291 60.292178 134.681422 134.683469 134.681422l754.233973 0c74.390267 0 134.682445-60.290131 134.682445-134.681422L1023.977999 134.683469C1023.977999 60.278875 963.685821 0 889.295554 0zM970.106044 888.917442c0 44.639686-36.19741 80.811514-80.81049 80.811514L135.06158 969.728956c-44.64071 0-80.81049-36.171828-80.81049-80.811514L54.25109 134.683469c0-44.639686 36.169781-80.81049 80.81049-80.81049l754.233973 0c44.614104 0 80.81049 36.170804 80.81049 80.81049L970.106044 888.917442zM423.607322 627.200742c-10.417257-10.441816-27.330462-10.441816-37.747719 0l-75.549673 75.525114-75.523067-75.525114c-10.443863-10.441816-27.332509-10.441816-37.775348 0-10.417257 10.417257-10.417257 27.333532 0 37.750789l75.523067 75.523067-75.523067 75.523067c-10.417257 10.471492-10.417257 27.359115 0 37.775348 10.44284 10.391674 27.331485 10.41828 37.775348 0l75.523067-75.547627 75.549673 75.547627c10.41828 10.41828 27.331485 10.41828 37.747719 0 10.444886-10.416234 10.444886-27.358091 0-37.775348l-75.523067-75.523067 75.523067-75.523067C434.051185 654.534274 434.051185 637.617999 423.607322 627.200742z" p-id="1925"></path></svg>