<?xml version="1.0" standalone="no"?><!DOCTYPE svg PUBLIC "-//W3C//DTD SVG 1.1//EN" "http://www.w3.org/Graphics/SVG/1.1/DTD/svg11.dtd"><svg t="1530250799337" class="icon" style="" viewBox="0 0 1027 1024" version="1.1" xmlns="http://www.w3.org/2000/svg" p-id="3670" xmlns:xlink="http://www.w3.org/1999/xlink" width="200.5859375" height="200"><defs><style type="text/css"></style></defs><path d="M675.84 38.034286c-7.314286-7.314286-20.48-7.314286-29.257143 0L5.851429 680.228571c-7.314286 7.314286-7.314286 20.48 0 29.257143l124.342857 124.342857c7.314286 7.314286 23.405714 14.628571 35.108571 14.628571l399.36 0c11.702857 0 26.331429-5.851429 35.108571-14.628571l421.302857-421.302857c7.314286-7.314286 7.314286-20.48 0-29.257143L675.84 38.034286zM560.274286 756.297143c-7.314286 7.314286-23.405714 14.628571-35.108571 14.628571L216.502857 770.925714c-11.702857 0-26.331429-5.851429-35.108571-14.628571l-58.514286-58.514286c-7.314286-7.314286-7.314286-20.48 0-29.257143l235.52-235.52c7.314286-7.314286 20.48-7.314286 29.257143 0l234.057143 234.057143c7.314286 7.314286 7.314286 20.48 0 29.257143L560.274286 756.297143z" p-id="3671"></path><path d="M147.748571 909.897143 889.417143 909.897143 889.417143 978.651429 147.748571 978.651429Z" p-id="3672"></path></svg>