<?xml version="1.0" standalone="no"?><!DOCTYPE svg PUBLIC "-//W3C//DTD SVG 1.1//EN" "http://www.w3.org/Graphics/SVG/1.1/DTD/svg11.dtd"><svg t="1531910930097" class="icon" style="" viewBox="0 0 1024 1024" version="1.1" xmlns="http://www.w3.org/2000/svg" p-id="4683" xmlns:xlink="http://www.w3.org/1999/xlink" width="200" height="200"><defs><style type="text/css"></style></defs><path d="M710.039936 682.210613c-8.349155 0-15.243169 4.114714-20.688181 12.339026-5.443989 8.225335-8.123005 19.398816-8.030907 33.513278l57.162908 0c-0.272199-14.976086-3.130294-26.361391-8.574283-34.157961C724.46753 686.110433 717.842645 682.210613 710.039936 682.210613z" p-id="4684"></path><path d="M870.099351 682.210613c-9.074679 0-16.672728 4.882194-22.796192 14.641465-6.124488 9.758248-9.188266 24.337291-9.188266 43.733037 0 20.871353 2.131547 35.971259 6.39771 45.300742 6.16849 13.503549 14.788821 20.2543 25.859971 20.2543 8.800433 0 16.285918-5.062296 22.456455-15.193027 6.169513-10.126638 9.255805-25.255197 9.255805-45.38977 0-22.464641-2.995217-38.637995-8.981559-48.521087C887.11284 687.154205 879.444183 682.210613 870.099351 682.210613z" p-id="4685"></path><path d="M972.523092 423.515736l-86.62287 0-310.726927-310.725904c0.529049-3.278673 0.811482-6.637164 0.811482-10.064216 0-34.755572-28.172643-62.930261-62.929238-62.930261s-62.931285 28.17469-62.931285 62.930261c0 3.427052 0.283456 6.786567 0.811482 10.064216L140.208809 423.515736 53.584916 423.515736c-28.418236 0-51.454906 23.037692-51.454906 51.455929l0 441.974134c0 28.417213 23.037692 51.453882 51.454906 51.453882l918.938176 0c28.418236 0 51.455929-23.038716 51.455929-51.453882L1023.979021 474.971665C1023.979021 446.553429 1000.942352 423.515736 972.523092 423.515736zM470.059282 148.657738c11.251252 10.535961 26.364461 16.998139 42.995233 16.998139 16.629749 0 31.743982-6.461155 42.995233-16.997116L830.905701 423.515736 195.201284 423.515736 470.059282 148.657738zM200.322932 829.157383c-11.07115 11.910261-25.907043 17.86181-44.506656 17.86181-21.143553 0-37.997406-9.021467-50.563606-27.069519-12.56927-18.047028-18.850323-43.024909-18.850323-74.944899 0-32.286334 6.305613-57.420781 18.918885-75.40641 12.611226-17.980513 29.670763-26.975375 51.175543-26.975375 17.60189 0 31.597649 5.127787 41.9883 15.375176 10.388605 10.252505 17.850553 25.871227 22.388916 46.864354l-37.70167 9.206686c-1.27197-10.188037-4.151553-17.86181-8.642844-23.016203-4.491291-5.15644-10.32209-7.736195-17.489326-7.736195-9.526981 0-17.128099 4.451382-22.797215 13.351076-5.671163 8.901741-8.506744 23.785729-8.506744 44.655036 0 23.202445 2.879584 39.58967 8.642844 49.166793 5.761214 9.574053 13.495362 14.361079 23.206538 14.361079 7.258311 0 13.201673-2.790556 17.830087-8.378831 4.627391-5.584182 7.893784-15.192004 9.79918-28.818349l37.565571 8.656147C218.878543 799.634999 211.393058 817.251216 200.322932 829.157383zM288.111347 842.599534l-38.246069 0L249.865278 572.647265l38.246069 0L288.111347 842.599534zM446.471051 817.832454c-14.110369 19.459191-31.871895 29.185716-53.2856 29.185716-13.248745 0-25.883507-4.051269-37.905308-12.153808-12.023848-8.102538-21.165042-19.976984-27.425629-35.630499-6.260587-15.651468-9.391904-34.710546-9.391904-57.175187 0-17.186428 3.131317-33.819247 9.391904-49.904597 6.260587-16.080234 15.128559-28.357861 26.608008-36.826743 11.477402-8.469905 24.295336-12.706393 38.449707-12.706393 21.866007 0 39.787168 9.607822 53.763484 28.818349 13.9712 19.212574 20.959358 43.488467 20.959358 72.827679C467.63507 773.854846 460.579374 798.376333 446.471051 817.832454zM602.516037 827.683822c-11.07115 12.889565-27.448142 19.336394-49.136094 19.336394-19.690458 0-35.274388-5.399987-46.752814-16.2061-11.480472-10.800997-18.987447-25.471115-22.526039-44.010353l38.383192-7.915273c1.633197 10.067286 4.943592 17.708314 9.93528 22.923082 4.988618 5.221932 11.977799 7.826246 20.958334 7.826246 9.889231 0 17.331737-2.453888 22.321378-7.364735 3.354398-3.435239 5.03569-8.040117 5.03569-13.81054 0-3.927449-0.908696-7.18361-2.721994-9.761318-1.905396-2.451842-6.17156-4.722558-12.793374-6.811126-30.850635-9.206686-50.406017-17.616216-58.662051-25.227568-11.432377-10.556427-17.149589-25.226544-17.149589-44.010353 0-16.941857 4.944616-31.182186 14.835893-42.720987 9.888208-11.536754 25.222451-17.309224 46.003753-17.309224 19.779486 0 34.479279 4.359284 44.098357 13.072737 9.616008 8.719592 16.240893 21.608134 19.871583 38.669718l-36.068474 9.023514c-1.544169-7.611352-4.469801-13.443174-8.777921-17.494443-4.311189-4.051269-10.459213-6.076392-18.441001-6.076392-10.072403 0-17.286712 1.904373-21.639856 5.709025-2.90619 2.701528-4.356214 6.200212-4.356214 10.495028 0 3.683902 1.269923 6.813173 3.810792 9.391904 3.447519 3.438309 15.358803 8.287757 35.727713 14.549368 20.36891 6.258541 34.593889 13.933337 42.669822 23.016203 7.982812 9.206686 11.976776 22.035876 11.976776 38.4845C619.121226 799.389406 613.58514 814.795281 602.516037 827.683822zM776.458648 759.736291l-95.818299 0c0.272199 15.3455 3.355421 27.28339 9.254781 35.815717 5.898337 8.535397 13.246699 12.798491 22.049179 12.798491 5.989411 0 11.025101-2.210341 15.108093-6.630001 4.082992-4.418636 7.167237-11.537777 9.255805-21.35947l38.108946 8.654101c-4.89959 18.907629-12.636808 33.301454-23.205515 43.180452-10.571776 9.883091-23.798009 14.82259-39.674605 14.82259-25.13547 0-43.736107-11.106965-55.80191-33.32806-9.529027-17.799388-14.291494-40.266076-14.291494-67.39597 0-32.410154 6.259564-57.789171 18.781762-76.143191 12.521175-18.35095 28.354791-27.52796 47.50085-27.52796 21.505803 0 38.47222 9.607822 50.903344 28.817326C771.059684 690.652889 777.00407 720.085222 776.458648 759.736291zM940.193779 842.599534l-35.524075 0 0-28.726252c-5.89936 11.172457-12.860912 19.490913-20.891819 24.951275s-16.129352 8.194636-24.294312 8.194636c-16.606213 0-30.828123-9.052167-42.668799-27.161616-11.840676-18.105357-17.760502-43.364647-17.760502-75.774801 0-33.145911 5.761214-58.340733 17.285688-75.590606 11.523451-17.245779 26.085098-25.870204 43.689035-25.870204 16.149818 0 30.124088 9.086959 41.920762 27.252691l0-97.226369 38.246069 0L940.193779 842.599534 940.193779 842.599534z" p-id="4686"></path><path d="M393.049351 684.789345c-9.982352 0-18.374486 5.15644-25.179472 15.467273-6.804986 10.311857-10.207479 25.168216-10.207479 44.563962 0 19.398816 3.402493 34.251082 10.207479 44.561915 6.804986 10.31288 15.19712 15.46625 25.179472 15.46625 9.980305 0 18.35095-5.15337 25.111934-15.46625 6.757914-10.310833 10.139941-25.286919 10.139941-44.930305 0-19.151176-3.382027-33.881668-10.139941-44.194548C411.400301 689.945785 403.029657 684.789345 393.049351 684.789345z" p-id="4687"></path></svg>