<?xml version="1.0" standalone="no"?><!DOCTYPE svg PUBLIC "-//W3C//DTD SVG 1.1//EN" "http://www.w3.org/Graphics/SVG/1.1/DTD/svg11.dtd"><svg t="1531893698561" class="icon" style="" viewBox="0 0 1024 1024" version="1.1" xmlns="http://www.w3.org/2000/svg" p-id="1924" xmlns:xlink="http://www.w3.org/1999/xlink" width="200" height="200"><defs><style type="text/css"></style></defs><path d="M926.238 340.677c-22.272-53.05-54.175-100.771-94.82-141.839-40.625-41.046-87.99-73.431-140.781-96.255-54.626-23.618-112.713-35.926-172.647-36.581a30.417 30.417 0 0 0-1.712 0.03A31.824 31.824 0 0 0 515 66h-30v180c0 16.5 13.5 30 30 30s30-13.5 30-30V127.276c92.275 7.495 177.99 47.304 243.774 113.771C861.145 314.167 901 411.1 901 513.988c0 52.394-10.255 103.206-30.479 151.023-19.541 46.2-47.521 87.699-83.164 123.342-35.643 35.645-77.141 63.625-123.339 83.166-47.815 20.224-98.625 30.479-151.019 30.479-52.393 0-103.203-10.255-151.018-30.479-46.2-19.542-87.697-47.522-123.34-83.166C203 752.709 175.019 711.21 155.479 665.01 135.254 617.194 125 566.382 125 513.988c0-52.624 10.342-103.64 30.738-151.632 19.707-46.371 47.912-87.975 83.831-123.655 11.755-11.677 11.818-30.672 0.142-42.427-11.677-11.755-30.672-11.818-42.426-0.142-41.453 41.177-74.01 89.208-96.767 142.756C76.95 394.342 65 453.255 65 513.988c0 60.468 11.849 119.144 35.218 174.396 22.566 53.352 54.864 101.262 95.998 142.396 41.134 41.135 89.042 73.434 142.393 96C393.86 950.15 452.534 962 513 962c60.467 0 119.141-11.85 174.392-35.22 53.351-22.566 101.259-54.865 142.393-96s73.432-89.044 95.997-142.396C949.151 633.132 961 574.456 961 513.988c0-60.061-11.695-118.371-34.762-173.311z" p-id="1925"></path><path d="M512 574.989c33.689 0 61-27.311 61-61.002 0-19.202-8.872-36.331-22.739-47.513C539.797 458.037 264 264.981 264 264.981s192.227 277.265 200.929 287.81c11.189 13.557 28.121 22.198 47.071 22.198z" p-id="1926"></path></svg>