<?xml version="1.0" standalone="no"?><!DOCTYPE svg PUBLIC "-//W3C//DTD SVG 1.1//EN" "http://www.w3.org/Graphics/SVG/1.1/DTD/svg11.dtd"><svg t="1531448397350" class="icon" style="" viewBox="0 0 1024 1024" version="1.1" xmlns="http://www.w3.org/2000/svg" p-id="1026" xmlns:xlink="http://www.w3.org/1999/xlink" width="200" height="200"><defs><style type="text/css"></style></defs><path d="M661.33 547.724a12.383 12.383 0 0 0-8.014-2.544h-98.691V277.418c0-0.137 0.001-0.283-0.028-0.437-0.3-3.777-3.224-6.82-6.956-7.275a2.013 2.013 0 0 0-0.394-0.052H477.11c-3.989 0-7.457 3.462-7.457 7.451V545.179h-98.812a12.383 12.383 0 0 0-8.014 2.544c-5.399 4.163-6.432 11.969-2.269 17.37l141.22 183.456a12.668 12.668 0 0 0 2.717 2.889 12.076 12.076 0 0 0 7.121 2.546h0.893a12.552 12.552 0 0 0 7.12-2.546c1.1-0.825 1.994-1.822 2.716-2.889l141.29-183.456c4.16-5.399 3.129-13.205-2.305-17.369z" p-id="1027"></path></svg>