<?xml version="1.0" standalone="no"?><!DOCTYPE svg PUBLIC "-//W3C//DTD SVG 1.1//EN" "http://www.w3.org/Graphics/SVG/1.1/DTD/svg11.dtd"><svg t="1529068997391" class="icon" style="" viewBox="0 0 1024 1024" version="1.1" xmlns="http://www.w3.org/2000/svg" p-id="4880" xmlns:xlink="http://www.w3.org/1999/xlink" width="200" height="200"><defs><style type="text/css"></style></defs><path d="M111.104 348.267636a29.515636 29.515636 0 0 0 12.468364 0.154182 29.684364 29.684364 0 0 0 23.013818-22.458182c17.928727-78.600727 65.291636-135.386182 140.768-168.776727 57.216-25.309091 111.630545-27.435636 112.119273-27.453091 16.299636-0.433455 29.250909-14.039273 28.866909-30.338909-0.386909-15.944727-13.675636-28.916364-29.669819-28.916364l-0.689454 0.005819c-2.621091 0.066909-64.983273 2.024727-133.381818 31.965091-92.898909 40.689455-153.684364 113.419636-175.784728 210.327272a29.410909 29.410909 0 0 0 3.796364 22.356364 29.393455 29.393455 0 0 0 18.493091 13.134545zM508.078545 414.193455H110.478545c-51.054545 0-92.587636 41.533091-92.587636 92.587636v240.136727c0 46.717091 34.871273 86.210909 81.12 91.872l0.779636 0.096c1.527273 0.171636 8.229818 0.590545 9.812364 0.599273 0.171636 0.005818 0.171636 0.005818 132.622546 0.008727l266.094545 0.011637 0.491636-0.017455a97.332364 97.332364 0 0 0 4.669091-0.148364l1.320728-0.098909c1.332364-0.093091 2.661818-0.209455 4.122181-0.375272l0.666182-0.087273c46.222545-5.649455 81.076364-45.143273 81.076364-91.860364v-240.136727c0-51.054545-41.536-92.587636-92.587637-92.587636z m27.976728 331.746909c0 15.688727-12.288 27.976727-27.973818 27.976727H110.478545c-15.688727 0-27.976727-12.285091-27.976727-27.930182l0.980364-239.208727c0-15.688727 12.288-27.976727 27.976727-27.976727h395.642182c15.685818 0 27.973818 12.296727 27.973818 28.026181l0.980364 239.112728zM430.973091 895.458909H187.584c-17.774545 0-32.794182 14.568727-32.794182 31.813818 0 17.841455 14.405818 31.819636 32.794182 31.819637h243.389091c18.388364 0 32.794182-13.978182 32.794182-31.819637 0-17.245091-15.019636-31.813818-32.794182-31.813818zM860.683636 126.810182c-0.002909-34.132364-27.776-61.899636-61.908363-61.899637H570.181818c-34.132364 0-61.902545 27.767273-61.902545 61.902546v138.065454c0 31.237818 23.36 57.649455 54.408727 61.445819l0.346182 0.040727c1.163636 0.133818 5.320727 0.442182 6.237091 0.398545 0.354909 0.011636 0.488727 0.014545 229.506909 0.020364h0.203636l0.215273-0.011636c1.044364-0.002909 2.100364-0.037818 3.290182-0.107637l0.791272-0.058182c0.869818-0.064 1.736727-0.136727 2.807273-0.256l0.360727-0.049454c30.920727-3.778909 54.24-30.184727 54.24-61.419636V126.810182z m-54.498909 137.504c0 4.221091-3.185455 7.406545-7.406545 7.406545h-228.593455c-4.224 0-7.409455-3.170909-7.409454-7.342545l0.564363-137.565091c0-4.224 3.185455-7.409455 7.406546-7.409455h227.458909c4.224 0 7.409455 3.197091 7.409454 7.470546l0.570182 137.44zM754.446545 341.597091H614.516364c-14.923636 0-27.531636 12.352-27.531637 26.970182 0 15.121455 12.093091 26.964364 27.531637 26.964363h139.930181c15.438545 0 27.531636-11.842909 27.531637-26.964363 0-14.621091-12.608-26.970182-27.531637-26.970182zM913.515636 447.086545c-1.524364-15.217455-14.161455-26.693818-29.393454-26.693818-1.012364 0-2.033455 0.052364-3.042909 0.154182a29.425455 29.425455 0 0 0-19.982546 10.72 29.422545 29.422545 0 0 0-6.557091 21.716364c2.461091 24.608 1.632 48.459636-2.464 70.888727l-0.805818 4.416 40.506182 70.164364 8.587636-25.771637c13.114182-39.406545 17.538909-81.658182 13.152-125.594182z" fill="" p-id="4881"></path><path d="M1004.712727 921.995636l-174.196363-301.716363c-9.477818-16.416-33.175273-16.416-42.653091 0l-174.196364 301.716363c-9.477818 16.416 2.370909 36.939636 21.326546 36.939637H983.389091c18.952727 0 30.804364-20.520727 21.323636-36.939637z m-195.194182 14.432a24.96 24.96 0 0 1-0.657454-49.911272 24.957091 24.957091 0 0 1 25.282909 24.625454 24.957091 24.957091 0 0 1-24.625455 25.285818z m11.49091-91.098181c-0.910545 15.016727-3.921455 19.808-11.962182 19.892363-7.866182 0.034909-11.051636-4.875636-11.962182-19.892363 0 0-19.851636-145.696-19.851636-150.117819 0-12.354909 12.904727-24.779636 32.759272-25.294545 18.594909 0 30.245818 11.968 31.156364 24.317091 0.011636 5.137455-20.139636 151.095273-20.139636 151.095273z" fill="#EFA300" p-id="4882"></path></svg>