<?xml version="1.0" standalone="no"?><!DOCTYPE svg PUBLIC "-//W3C//DTD SVG 1.1//EN" "http://www.w3.org/Graphics/SVG/1.1/DTD/svg11.dtd"><svg t="1531562767250" class="icon" style="" viewBox="0 0 1024 1024" version="1.1" xmlns="http://www.w3.org/2000/svg" p-id="11088" xmlns:xlink="http://www.w3.org/1999/xlink" width="200" height="200"><defs><style type="text/css"></style></defs><path d="M570.188076 614.404686C521.320168 572.507866 525.971465 553.902678 463.13795 553.902678s-102.398828 13.965607-86.113431 102.398828 62.833514 48.867908 58.182218 114.032929 11.6341 81.450418 20.94841 97.747531 41.89682 62.833514 53.530921-2.343223 32.58251-102.398828 58.182218-134.981339 51.199414-74.479331 2.343223-116.364435l0 0Zm-172.226862-153.598243c2.343223-32.58251 55.850711-67.496527 93.096235-83.781925s69.816318-20.94841 65.165021-48.867908-13.965607-48.867908-69.816318-48.867908-32.58251 76.799121-79.130628 30.251004 9.31431-32.58251 32.58251-44.216611 46.548117-53.530921 7.029668-55.850711-32.58251 18.616904-65.165021 7.029668S335.09255 258.328577 314.191005 249.014268c-13.965607-4.686445-48.867908-32.58251-74.467615-58.182218-48.867908 39.565314-86.113431 90.764728-111.713138 151.278452 7.029668 79.130628 48.867908 118.695942 48.867908 118.695942s20.94841 51.199414 153.598243 114.032929c0 0 25.599707 2.343223-4.686445-27.931214s-60.513724-65.165021-25.599707-83.781925 46.548117-18.616904 55.850711 18.616904 39.565314 13.965607 41.89682-20.94841l0 0Zm530.622762 11.6341c0-4.686445 0-7.029668-2.343223-11.6341a71.4 71.4 0 0 0-4.686445-25.599707c0-4.686445-2.343223-9.31431-2.343223-13.965607-2.343223-9.31431-4.686445-16.297113-7.029668-25.599707 0-4.686445-2.343223-7.029668-2.343223-11.6341-4.686445-11.6341-7.029668-23.268201-11.6341-32.58251l-7.029668-13.965607c-2.343223-7.029668-7.029668-11.6341-9.31431-18.616904-2.343223-4.686445-7.029668-11.6341-9.31431-16.297113s-4.686445-9.31431-9.302594-13.965607-7.029668-11.6341-11.6341-16.297113c-2.343223-2.343223-4.686445-7.029668-7.029668-9.302594-16.285397-20.94841-34.914017-41.89682-55.850711-60.513724-2.343223 0-2.343223-2.343223-4.686445-2.343223-7.029668-7.029668-13.965607-11.6341-23.268201-18.616904l-2.343223 0a330 330 0 0 0-109.381632-60.513724c-11.6341 18.616904-23.268201 41.89682-37.233807 51.199414-20.94841 11.6341-18.616904 58.182218 20.94841 53.530921 0 0-11.6341 11.6341 0 53.530921s30.251004 51.199414 88.433222 27.931214c25.599707-9.302594 44.216611-4.686445 41.89682 20.94841-7.029668 53.530921-46.548117 51.199414-16.297113 137.312845 18.616904 53.530921 65.165021 72.147824 83.781925 114.032929 9.31431 23.268201 46.548117 41.89682 76.799121 58.182218 2.343223-11.6341 7.029668-23.268201 9.31431-32.58251 0-4.686445 2.343223-9.31431 2.343223-13.965607 2.343223-9.31431 2.343223-16.297113 4.686445-25.599707 0-4.686445 0-7.029668 2.343223-11.6341 0-11.6341 2.343223-25.599707 2.343223-37.233807 2.343223-18.616904 2.343223-30.251004 0-44.216611l0 0ZM770.334436 609.741673c-16.297113 9.31431-16.297113 32.58251-2.343223 44.216611s41.89682 27.931214 51.199414 0-32.58251-53.530921-48.867908-44.216611l0 0ZM512.005858 0c-283.928285 0-511.994142 228.077573-511.994142 511.994142s228.077573 511.994142 511.994142 511.994142 511.994142-228.077573 511.994142-511.994142-228.077573-511.994142-511.994142-511.994142l0 0Zm0 977.463599c-255.997071 0-465.457741-209.46067-465.457741-465.457741S256.008787 46.594982 512.005858 46.594982 977.463599 255.997071 977.463599 511.994142 768.002929 977.451883 512.005858 977.451883l0 0Z" p-id="11089"></path></svg>