<?xml version="1.0" standalone="no"?><!DOCTYPE svg PUBLIC "-//W3C//DTD SVG 1.1//EN" "http://www.w3.org/Graphics/SVG/1.1/DTD/svg11.dtd"><svg t="1531987575101" class="icon" style="" viewBox="0 0 1024 1024" version="1.1" xmlns="http://www.w3.org/2000/svg" p-id="1983" xmlns:xlink="http://www.w3.org/1999/xlink" width="200" height="200"><defs><style type="text/css"></style></defs><path d="M250.25561 930.487321c26.486135 0 47.953171-20.2752 47.953171-45.257803s-21.467036-45.257803-47.953171-45.257803c-26.487134 0-47.953171 20.2752-47.953171 45.257803S223.769475 930.487321 250.25561 930.487321z" p-id="1984"></path><path d="M203.301463 393.20601l351.656585 0c8.839368 0 15.98439-10.151087 15.98439-22.706825 0-12.556738-7.145022-22.706825-15.98439-22.706825L203.301463 347.792359c-8.840367 0-15.98439 10.150088-15.98439 22.706825C187.317073 383.055922 194.462096 393.20601 203.301463 393.20601z" p-id="1985"></path><path d="M203.301463 201.114599l351.656585 0c8.839368 0 15.98439-10.151087 15.98439-22.706825 0-12.556738-7.145022-22.707824-15.98439-22.707824L203.301463 155.699949c-8.840367 0-15.98439 10.151087-15.98439 22.707824C187.317073 190.963512 194.462096 201.114599 203.301463 201.114599z" p-id="1986"></path><path d="M415.351383 539.195442 202.302439 539.195442c-8.840367 0-15.98439 10.151087-15.98439 22.706825s7.144023 22.706825 15.98439 22.706825l190.04441 0C398.980371 568.882451 406.679852 553.715262 415.351383 539.195442z" p-id="1987"></path><path d="M380.725198 840.039649c-0.859161-0.043957-1.723317-0.067934-2.594466-0.067934-26.487134 0-47.953171 20.2752-47.953171 45.257803s21.466037 45.257803 47.953171 45.257803c14.932418 0 28.267395-6.445705 37.061807-16.544843C401.103298 890.861019 389.491637 866.104195 380.725198 840.039649z" p-id="1988"></path><path d="M697.818537 115.84487c0-33.355426-28.597073-60.34407-63.937561-60.34407L122.380488 55.5008c-35.341487 0-63.937561 26.988644-63.937561 60.34407l0 844.813986C58.442927 994.013284 87.039001 1021.002927 122.380488 1021.002927l301.872203 0 0-0.58343c12.833467-2.595465 22.471056-13.571746 22.471056-26.722903s-9.637588-24.127438-22.471056-26.722903l0-0.237768-1.344687 0c-1.462572-0.22478-2.961108-0.345662-4.489616-0.345662s-3.027044 0.120882-4.489616 0.345662L156.421245 966.735922c-15.29806 0-27.713936-9.796433-27.713936-21.865647l0-240.515122 235.260254 0c1.401631-23.839719 5.087032-47.06304 10.84441-69.45817L128.707309 634.896983 128.707309 491.894634l319.577912 0c14.78656-17.676738 31.208523-33.936859 49.043106-48.540597L129.706334 443.354037 129.706334 300.351688l498.846845 0 0 18.675762c-0.322685 1.677362-0.500511 3.398681-0.500511 5.156964s0.177826 3.478603 0.500511 5.156964l0 0.170833 0.033967 0c2.866201 14.379957 17.110291 25.310283 34.265538 25.310283 17.154248 0 31.399337-10.930326 34.26354-25.310283L697.818537 329.512211 697.818537 115.84487zM627.554154 242.347333 128.707309 242.347333l0-99.316012c0-13.705616 12.415875-24.828753 27.713936-24.828753l443.418974 0c15.29806 0 27.713936 11.123138 27.713936 24.828753L627.554154 242.347333z" p-id="1989"></path><path d="M728.61646 434.231945c-162.859957 0-294.882029 132.02407-294.882029 294.884027 0 162.858958 132.022072 294.884027 294.882029 294.884027C891.477417 1024 1023.500488 891.974931 1023.500488 729.115973 1023.500488 566.256016 891.477417 434.231945 728.61646 434.231945zM925.465225 766.711259c-10.315926 8.858349-22.849686 13.275036-37.599282 13.275036L569.36498 779.986295c-14.741604 0-27.27936-4.416687-37.594287-13.275036-10.323918-8.842365-15.483879-20.64384-15.483879-35.37945 0-14.747598 5.163957-27.280359 15.483879-37.610271 10.314927-10.312929 22.852683-15.475887 37.594287-15.475887l318.501963 0c14.743602 0 27.273366 5.152968 37.599282 15.475887 10.322919 10.330911 15.491871 22.863672 15.48288 37.610271C940.948105 746.072414 935.788144 757.868894 925.465225 766.711259z" p-id="1990"></path></svg>