<?xml version="1.0" standalone="no"?><!DOCTYPE svg PUBLIC "-//W3C//DTD SVG 1.1//EN" "http://www.w3.org/Graphics/SVG/1.1/DTD/svg11.dtd"><svg t="1530240829659" class="icon" style="" viewBox="0 0 1024 1024" version="1.1" xmlns="http://www.w3.org/2000/svg" p-id="2472" xmlns:xlink="http://www.w3.org/1999/xlink" width="200" height="200"><defs><style type="text/css"></style></defs><path d="M460.8 307.2a204.8 204.8 0 1 1 409.6 0v409.6h153.6l-204.8 204.8-204.8-204.8h153.6V307.2a102.4 102.4 0 0 0-102.4-102.4 102.4 102.4 0 0 0-102.4 102.4v409.6a204.8 204.8 0 1 1-409.6 0V307.2H0l204.8-204.8 204.8 204.8H256v409.6a102.4 102.4 0 0 0 102.4 102.4 102.4 102.4 0 0 0 102.4-102.4V307.2z" p-id="2473"></path></svg>