<?xml version="1.0" standalone="no"?><!DOCTYPE svg PUBLIC "-//W3C//DTD SVG 1.1//EN" "http://www.w3.org/Graphics/SVG/1.1/DTD/svg11.dtd"><svg t="1531493404235" class="icon" style="" viewBox="0 0 1365 1024" version="1.1" xmlns="http://www.w3.org/2000/svg" p-id="3060" xmlns:xlink="http://www.w3.org/1999/xlink" width="266.6015625" height="200"><defs><style type="text/css"></style></defs><path d="M865.626453 332.516693c-51.104427-51.104427-51.104427-133.963093 0-185.06752l127.931734-127.931733C899.157333-8.861013 792.584533 14.2336 717.999787 88.818347 643.413333 163.406507 620.31872 269.975893 648.69376 364.38016l-432.807253 432.810667c-51.104427 51.104427-51.104427 133.963093 0 185.06752 51.104427 51.104427 133.963093 51.104427 185.06752 0l432.807253-432.80896 0.001707-0.001707c94.404267 28.376747 200.973653 5.282133 275.560106-69.30432s97.67936-181.15584 69.302614-275.5584l-127.931734 127.931733c-51.104427 51.106133-133.963093 51.106133-185.06752 0zM369.194667 894.073173c-17.983147 17.98144-47.141547 17.98144-65.124694 0-17.984853-17.984853-17.983147-47.141547 0-65.1264 17.983147-17.983147 47.141547-17.983147 65.124694 0s17.983147 47.141547 0 65.1264z" fill="" p-id="3061"></path></svg>