<?xml version="1.0" standalone="no"?><!DOCTYPE svg PUBLIC "-//W3C//DTD SVG 1.1//EN" "http://www.w3.org/Graphics/SVG/1.1/DTD/svg11.dtd"><svg t="1531448248024" class="icon" style="" viewBox="0 0 1024 1024" version="1.1" xmlns="http://www.w3.org/2000/svg" p-id="3670" xmlns:xlink="http://www.w3.org/1999/xlink" width="200" height="200"><defs><style type="text/css"></style></defs><path d="M512 0C230.4 0 0 230.4 0 512s230.4 512 512 512 512-230.4 512-512S793.6 0 512 0z m230.4 499.2c-6.4 6.4-19.2 12.8-28.8 12.8-9.6 0-19.2-3.2-28.8-12.8l-131.2-131.2v380.8c0 22.4-19.2 38.4-38.4 38.4-22.4 0-38.4-19.2-38.4-38.4V368l-131.2 131.2c-16 16-41.6 16-57.6 0s-16-41.6 0-57.6l198.4-198.4c16-16 41.6-16 57.6 0l198.4 198.4c16 19.2 16 44.8 0 57.6z" p-id="3671"></path></svg>