<?xml version="1.0" standalone="no"?><!DOCTYPE svg PUBLIC "-//W3C//DTD SVG 1.1//EN" "http://www.w3.org/Graphics/SVG/1.1/DTD/svg11.dtd"><svg t="1531563094927" class="icon" style="" viewBox="0 0 1024 1024" version="1.1" xmlns="http://www.w3.org/2000/svg" p-id="12595" xmlns:xlink="http://www.w3.org/1999/xlink" width="200" height="200"><defs><style type="text/css"></style></defs><path d="M512.18432 755.93728c-30.48448 0-55.22432 24.65792-55.22432 54.95808 0 30.3616 24.70912 54.9376 55.22432 54.9376 30.49472 0 55.18336-24.61696 55.18336-54.9376-0.01024-30.33088-24.69888-54.95808-55.18336-54.95808zM936.99072 343.2448C823.43936 236.88192 672.512 178.31936 512.01024 178.31936s-311.43936 58.5728-424.99072 164.98688c-20.03968 18.76992-20.03968 49.18272 0 68.00384 10.01472 9.3696 23.16288 14.08 36.28032 14.08 13.1072 0 26.25536-4.7104 36.3008-14.08C253.71648 323.072 378.89024 279.6544 511.97952 279.6544c133.14048 0 258.29376 43.4176 352.4096 131.60448 20.04992 18.76992 52.5312 18.76992 72.6016 0 20.00896-18.7904 20.04992-49.24416 0-68.01408z m-425.4208 27.392c-118.6304 0-230.16448 45.86496-314.05056 129.1264a52.77696 52.77696 0 0 0-15.68768 37.62176c0 14.72512 5.9904 28.03712 15.67744 37.64224a53.6064 53.6064 0 0 0 37.92896 15.616c13.71136 0 27.4432-5.20192 37.87776-15.616 63.6416-63.16032 148.2752-101.41696 238.25408-101.41696 89.94816 0 174.61248 38.27712 238.21312 101.41696a53.89312 53.89312 0 0 0 75.80672 0 52.77696 52.77696 0 0 0 15.7184-37.64224 52.79744 52.79744 0 0 0-15.70816-37.62176c-83.89632-83.26144-195.47136-129.13664-314.03008-129.1264z m0.4608 192.39936c-67.10272 0-130.1504 26.90048-177.60256 75.776-19.6608 20.24448-19.6608 53.12512 0 73.35936a49.37728 49.37728 0 0 0 35.584 15.1552 49.50016 49.50016 0 0 0 35.55328-15.1552c28.43648-29.31712 66.2528-47.1552 106.47552-47.1552 40.17152 0 77.98784 17.8176 106.46528 47.104a49.28512 49.28512 0 0 0 71.168 0c19.59936-20.24448 19.59936-53.06368 0-73.29792-47.4624-48.88576-110.5408-75.78624-177.64352-75.78624z m0 0" fill="#cdcdcd" p-id="12596"></path></svg>