<?xml version="1.0" standalone="no"?><!DOCTYPE svg PUBLIC "-//W3C//DTD SVG 1.1//EN" "http://www.w3.org/Graphics/SVG/1.1/DTD/svg11.dtd"><svg t="1531563077406" class="icon" style="" viewBox="0 0 1024 1024" version="1.1" xmlns="http://www.w3.org/2000/svg" p-id="12367" xmlns:xlink="http://www.w3.org/1999/xlink" width="200" height="200"><defs><style type="text/css"></style></defs><path d="M512.143 810.791c-6.09 0-20.235-11.133-42.436-33.498-22.2-22.363-33.333-36.59-33.333-42.681 0-9.741 9.512-17.977 28.552-24.656 19.008-6.696 34.766-10.052 47.217-10.052 12.492 0 28.226 3.355 47.258 10.052 19.032 6.68 28.553 14.915 28.553 24.656 0 6.091-11.133 20.317-33.334 42.681-22.232 22.365-36.378 33.547-42.477 33.547v-0.049z m123.296-123.657c-0.605 0-6.696-3.815-18.287-11.444-11.551-7.58-27.014-15.209-46.316-22.806a159.515 159.515 0 0 0-58.693-11.411c-19.785 0-39.35 3.781-58.693 11.411-19.294 7.629-34.643 15.259-46.087 22.806-11.395 7.564-17.566 11.412-18.467 11.444-5.493 0-19.712-11.396-42.698-34.25-22.953-22.823-34.463-36.984-34.463-42.452 0-3.93 1.498-7.449 4.511-10.462 23.78-23.429 53.609-41.847 89.546-55.255a302.946 302.946 0 0 1 106.352-20.105c34.987 0 70.465 6.696 106.401 20.105 35.928 13.408 65.766 31.794 89.505 55.255a14.342 14.342 0 0 1 4.511 10.462c0 5.468-11.469 19.629-34.455 42.452-22.955 22.854-37.214 34.25-42.667 34.25z m124.607-124.181a18.996 18.996 0 0 1-10.503-3.668c-41.38-31.941-79.755-55.443-115.053-70.514-35.322-15.033-76.105-22.585-122.348-22.585a311.281 311.281 0 0 0-77.881 10.044 360.782 360.782 0 0 0-67.977 24.173c-19.343 9.442-36.607 18.885-51.809 28.332-15.234 9.446-27.234 17.519-36.075 24.165-8.809 6.729-13.548 10.053-14.113 10.085-5.19 0-19.188-11.395-41.994-34.25-22.831-22.818-34.234-36.98-34.234-42.457a14.01 14.01 0 0 1 4.519-10.048c40.217-40.185 88.899-71.382 146.12-93.553a476.577 476.577 0 0 1 173.484-33.35c58.464 0 116.29 11.104 173.518 33.35 57.188 22.245 105.91 53.405 146.087 93.553 3.012 3.024 4.519 6.422 4.519 10.048 0 5.477-11.403 19.638-34.242 42.457-22.798 22.855-36.796 34.25-41.953 34.25h-0.065v-0.032z m123.739-123.735a15.872 15.872 0 0 1-10.053-4.117c-54.47-47.777-111.018-83.771-169.597-107.944-58.619-24.173-122.609-36.26-191.993-36.26-69.367 0-133.365 12.087-191.944 36.26-58.578 24.173-115.127 60.167-169.612 107.944a15.834 15.834 0 0 1-10.036 4.154c-5.19 0-19.27-11.444-42.256-34.254-22.954-22.888-34.422-37.017-34.463-42.453 0-3.97 1.506-7.482 4.551-10.502 56.925-56.614 124.647-100.43 203.167-131.475a649.052 649.052 0 0 1 240.593-46.57c81.868 0 162.049 15.525 240.561 46.57 78.52 31.045 146.242 74.86 203.167 131.475 3.004 3.021 4.552 6.532 4.552 10.502 0 5.477-11.477 19.638-34.463 42.453-22.986 22.81-37.066 34.217-42.256 34.217h0.082z m-45.866 411.52c66.511 0 120.424-53.913 120.424-120.432 0-66.503-53.913-120.416-120.424-120.416s-120.424 53.913-120.424 120.416c0 66.519 53.913 120.432 120.424 120.432z m-19.785-186.885c0-11.28 9.151-20.433 20.432-20.433s20.433 9.152 20.433 20.433l-0.058 73.674c0 11.28-9.152 20.433-20.424 20.433-11.28 0-20.433-9.152-20.433-20.433l0.05-73.674z m0.015 125.736c0-11.28 9.152-20.433 20.433-20.433 11.272 0 20.424 9.152 20.424 20.433l-0.065 4.24c0 11.265-9.152 20.416-20.424 20.416-11.28 0-20.433-9.151-20.433-20.416l0.065-4.24z" fill="#DDDDDD" p-id="12368"></path></svg>